<svg width="22" height="20" viewBox="0 0 22 20" fill="none" xmlns="http://www.w3.org/2000/svg">
<path d="M20.1341 0.176619C17.2318 1.49892 4.78716 7.16931 1.34872 8.71477C-0.957257 9.70468 0.392692 10.6328 0.392692 10.6328C0.392692 10.6328 2.36112 11.3752 4.04862 11.932C5.73588 12.4889 6.63576 11.8703 6.63576 11.8703L14.5661 5.99258C17.3783 3.88898 16.7034 5.62126 16.0283 6.36389C14.5661 7.97266 12.1476 10.5091 10.1228 12.5509C9.22291 13.417 9.67274 14.1594 10.0667 14.5307C11.5289 15.8919 15.5224 18.6762 15.7472 18.8617C16.9353 19.787 19.2724 21.1189 19.6279 18.3048L21.034 8.59126C21.484 5.31222 21.9339 2.28047 21.99 1.41433C22.1589 -0.689521 20.1341 0.176619 20.1341 0.176619Z" fill="white"/>
</svg>
